{"title":"Stranger Things S01 2160p NF WEBRip DD5 1 x264-NTb[rartv]","uid":15566133,"size":101166439568,"categoryP":"video","categoryS":"hd___tv_shows","magnet":"?xt=urn:btih:72a751b5c0e3cfaaab55199da2d94f0c1e0cdba8&amp;dn=Stranger+Things+S01+2160p+NF+WEBRip+DD5+1+x264-NTb%5Brartv%5D&amp;tr=udp%3A%2F%2Ftracker.leechers-paradise.org%3A6969&amp;tr=udp%3A%2F%2Fzer0day.ch%3A1337&amp;tr=udp%3A%2F%2Fopen.demonii.com%3A1337&amp;tr=udp%3A%2F%2Ftracker.coppersurfer.tk%3A6969&amp;tr=udp%3A%2F%2Fexodus.desync.com%3A6969","seeders":3,"leechers":10,"uploader":"BreexeOX","files":56,"time":1471202060,"description":"General\r\nFormat                         : Matroska\r\nFormat version                 : Version 4 / Version 2\r\nFile size                      : 10.3 GiB\r\nDuration                       : 48mn 16s\r\nOverall bit rate               : 30.6 Mbps\r\nEncoded date                   : UTC 2016-07-16 18:43:48\r\nWriting application            : mkvmerge v7.6.0 ('Garden of Dreams') 64bit built on Feb  8 2015 13:04:34\r\nWriting library                : libebml v1.3.1 + libmatroska v1.4.2\r\n\r\nVideo\r\nID                             : 1\r\nFormat                         : AVC\r\nFormat/Info                    : Advanced Video Codec\r\nFormat profile                 :   \r\nFormat settings, CABAC         : Yes\r\nFormat settings, ReFrames      : 6 frames\r\nCodec ID                       : V_MPEG4/ISO/AVC\r\nDuration                       : 48mn 16s\r\nBit rate                       : 29.6 Mbps\r\nWidth                          : 3 840 pixels\r\nHeight                         : 1 920 pixels\r\nDisplay aspect ratio           : 2.000\r\nFrame rate mode                : Constant\r\nFrame rate                     : 23.976 (24000/1001) fps\r\nColor space                    : YUV\r\nChroma subsampling             : 4:2:0\r\nBit depth                      : 8 bits\r\nScan type                      : Progressive\r\nBits/(Pixel*Frame)             : 0.168\r\nStream size                    : 9.99 GiB (97%)\r\nWriting library                : x264 core 144 r2525 40bb568\r\nLanguage                       : English\r\nDefault                        : Yes\r\nForced                         : No\r\n\r\nAudio\r\nID                             : 2\r\nFormat                         : AC-3\r\nFormat/Info                    : Audio Coding 3\r\nMode extension                 : CM (complete main)\r\nFormat settings, Endianness    : Big\r\nCodec ID                       : A_AC3\r\nDuration                       : 48mn 16s\r\nBit rate mode                  : Constant\r\nBit rate                       : 384 Kbps\r\nChannel(s)                     : 6 channels\r\nChannel positions              : Front: L C R, Side: L R, LFE\r\nSampling rate                  : 48.0 KHz\r\nFrame rate                     : 31.250 fps (1536 spf)\r\nCompression mode               : Lossy\r\nStream size                    : 133 MiB (1%)\r\nLanguage                       : English\r\nDefault                        : Yes\r\nForced                         : No\r\n\r\nText #1\r\nID                             : 3\r\nFormat                         : UTF-8\r\nCodec ID                       : S_TEXT/UTF8\r\nCodec ID/Info                  : UTF-8 Plain Text\r\nLanguage                       : English\r\nDefault                        : No\r\nForced                         : No\r\n\r\nText #2\r\nID                             : 4\r\nFormat                         : UTF-8\r\nCodec ID                       : S_TEXT/UTF8\r\nCodec ID/Info                  : UTF-8 Plain Text\r\nLanguage                       : French\r\nDefault                        : No\r\nForced                         : No\r\n\r\nText #3\r\nID                             : 5\r\nFormat                         : UTF-8\r\nCodec ID                       : S_TEXT/UTF8\r\nCodec ID/Info                  : UTF-8 Plain Text\r\nLanguage                       : German\r\nDefault                        : No\r\nForced                         : No\r\n\r\nText #4\r\nID                             : 6\r\nFormat                         : UTF-8\r\nCodec ID                       : S_TEXT/UTF8\r\nCodec ID/Info                  : UTF-8 Plain Text\r\nLanguage                       : Italian\r\nDefault                        : No\r\nForced                         : No","torrent":{"xt":"urn:btih:72a751b5c0e3cfaaab55199da2d94f0c1e0cdba8","amp;dn":"Stranger+Things+S01+2160p+NF+WEBRip+DD5+1+x264-NTb%5Brartv%5D","amp;tr":["udp%3A%2F%2Ftracker.leechers-paradise.org%3A6969","udp%3A%2F%2Fzer0day.ch%3A1337","udp%3A%2F%2Fopen.demonii.com%3A1337","udp%3A%2F%2Ftracker.coppersurfer.tk%3A6969","udp%3A%2F%2Fexodus.desync.com%3A6969"],"infoHash":"72a751b5c0e3cfaaab55199da2d94f0c1e0cdba8","infoHashBuffer":{"type":"Buffer","data":[114,167,81,181,192,227,207,170,171,85,25,157,162,217,79,12,30,12,219,168]},"announce":[],"urlList":[]}}